<svg width="13" height="10" viewBox="0 0 13 10" fill="none" xmlns="http://www.w3.org/2000/svg">
<path d="M2.12695 9V2.15039L0.0585938 2.95898V1.49414L3.04102 0.369141H3.87891V9H2.12695ZM6.33398 6.72656V6.61523H8.08594V6.7207C8.08594 7.08398 8.19922 7.36719 8.42578 7.57031C8.65234 7.77344 8.97461 7.875 9.39258 7.875C9.81445 7.875 10.1387 7.73828 10.3652 7.46484C10.5918 7.1875 10.7051 6.78711 10.7051 6.26367C10.7051 5.74023 10.5898 5.34766 10.3594 5.08594C10.1289 4.82422 9.81055 4.69336 9.4043 4.69336C9.0957 4.69336 8.83203 4.75586 8.61328 4.88086C8.39844 5.00586 8.20703 5.16797 8.03906 5.36719L6.65625 4.74609L7.0957 0.46875H12.0176V1.86328H8.49609L8.29102 3.80273C8.46289 3.68945 8.66797 3.59375 8.90625 3.51562C9.14453 3.43359 9.42383 3.39258 9.74414 3.39258C10.5254 3.39258 11.1758 3.64062 11.6953 4.13672C12.2148 4.63281 12.4746 5.32422 12.4746 6.21094C12.4746 7.11719 12.1973 7.83789 11.6426 8.37305C11.0879 8.9082 10.3398 9.17578 9.39844 9.17578C8.41016 9.17578 7.65234 8.94531 7.125 8.48438C6.59766 8.01953 6.33398 7.43359 6.33398 6.72656Z" fill="black"/>
</svg>
