<svg width="18" height="12" viewBox="0 0 18 12" fill="none" xmlns="http://www.w3.org/2000/svg">
<path fill-rule="evenodd" clip-rule="evenodd" d="M16.5 0.666656H15.5C14.9477 0.666656 14.5 1.11437 14.5 1.66666V10.3333C14.5 10.8856 14.9477 11.3333 15.5 11.3333H16.5C17.0523 11.3333 17.5 10.8856 17.5 10.3333V1.66666C17.5 1.11437 17.0523 0.666656 16.5 0.666656ZM10.8333 2.99999H11.8333C12.3856 2.99999 12.8333 3.44771 12.8333 3.99999V10.3333C12.8333 10.8856 12.3856 11.3333 11.8333 11.3333H10.8333C10.281 11.3333 9.83333 10.8856 9.83333 10.3333V3.99999C9.83333 3.44771 10.281 2.99999 10.8333 2.99999ZM7.16667 5.33332H6.16667C5.61438 5.33332 5.16667 5.78104 5.16667 6.33332V10.3333C5.16667 10.8856 5.61438 11.3333 6.16667 11.3333H7.16667C7.71895 11.3333 8.16667 10.8856 8.16667 10.3333V6.33332C8.16667 5.78104 7.71895 5.33332 7.16667 5.33332ZM2.5 7.33332H1.5C0.947715 7.33332 0.5 7.78104 0.5 8.33332V10.3333C0.5 10.8856 0.947715 11.3333 1.5 11.3333H2.5C3.05228 11.3333 3.5 10.8856 3.5 10.3333V8.33332C3.5 7.78104 3.05228 7.33332 2.5 7.33332Z" fill="#212121"/>
</svg>
