<svg width="16" height="12" viewBox="0 0 16 12" fill="none" xmlns="http://www.w3.org/2000/svg">
<path fill-rule="evenodd" clip-rule="evenodd" d="M8.16707 2.61514C10.3918 2.61523 12.5315 3.46934 14.1438 5.00094C14.2652 5.11918 14.4593 5.11769 14.5789 4.99759L15.7395 3.82726C15.8 3.76635 15.8338 3.68384 15.8333 3.59799C15.8328 3.51214 15.7981 3.43003 15.7368 3.36983C11.5049 -0.6824 4.82857 -0.6824 0.596657 3.36983C0.535354 3.42999 0.500572 3.51207 0.500007 3.59792C0.499442 3.68377 0.53314 3.7663 0.593645 3.82726L1.75459 4.99759C1.87409 5.11787 2.06831 5.11936 2.18965 5.00094C3.80221 3.46924 5.94212 2.61513 8.16707 2.61514ZM8.16707 6.42272C9.38942 6.42264 10.5681 6.8766 11.4742 7.69637C11.5968 7.81272 11.7898 7.81019 11.9093 7.69069L13.0685 6.52036C13.1296 6.45897 13.1635 6.37569 13.1626 6.28916C13.1617 6.20262 13.1261 6.12005 13.0639 6.05992C10.3047 3.49551 6.03178 3.49551 3.27262 6.05992C3.2103 6.12005 3.17474 6.20266 3.17392 6.28923C3.1731 6.37579 3.20709 6.45906 3.26827 6.52036L4.42721 7.69069C4.54667 7.81019 4.73972 7.81272 4.86227 7.69637C5.76774 6.87714 6.94553 6.42322 8.16707 6.42272ZM10.4893 8.98456C10.4911 9.07133 10.4569 9.155 10.3949 9.21579L8.38962 11.2378C8.33084 11.2972 8.25069 11.3307 8.16707 11.3307C8.08345 11.3307 8.0033 11.2972 7.94452 11.2378L5.93888 9.21579C5.87693 9.15495 5.84284 9.07126 5.84468 8.98448C5.84652 8.89771 5.88411 8.81553 5.94859 8.75736C7.22925 7.67509 9.10489 7.67509 10.3856 8.75736C10.45 8.81558 10.4875 8.89778 10.4893 8.98456Z" fill="#212121"/>
</svg>
