<svg width="56" height="76" viewBox="0 0 56 76" fill="none" xmlns="http://www.w3.org/2000/svg">
<path d="M31.3086 44.0586C31.681 43.6862 32.1107 43.5 32.5977 43.5C33.0846 43.5 33.5 43.6862 33.8438 44.0586C34.2161 44.431 34.4023 44.8607 34.4023 45.3477C34.4023 45.8346 34.2161 46.2643 33.8438 46.6367C33.5 46.9805 33.0846 47.1523 32.5977 47.1523C32.1107 47.1523 31.681 46.9805 31.3086 46.6367C30.9362 46.2643 30.75 45.8346 30.75 45.3477C30.75 44.8607 30.9362 44.431 31.3086 44.0586ZM17.9023 28.8477H20.9102L21.7695 30.6523H35.3477C35.6055 30.6523 35.8203 30.7526 35.9922 30.9531C36.1641 31.125 36.25 31.3398 36.25 31.5977C36.25 31.6263 36.207 31.7695 36.1211 32.0273L32.8555 37.957C32.5117 38.5872 31.9818 38.9023 31.2656 38.9023H24.4336L23.6172 40.4062L23.5742 40.5352C23.5742 40.6784 23.6458 40.75 23.7891 40.75H34.4023V42.5977H23.4023C22.9154 42.5977 22.4857 42.4115 22.1133 42.0391C21.7695 41.6667 21.5977 41.237 21.5977 40.75C21.5977 40.4635 21.6693 40.1771 21.8125 39.8906L23.0586 37.6133L19.75 30.6523H17.9023V28.8477ZM22.1133 44.0586C22.4857 43.6862 22.9154 43.5 23.4023 43.5C23.8893 43.5 24.319 43.6862 24.6914 44.0586C25.0638 44.431 25.25 44.8607 25.25 45.3477C25.25 45.8346 25.0638 46.2643 24.6914 46.6367C24.319 46.9805 23.8893 47.1523 23.4023 47.1523C22.9154 47.1523 22.4857 46.9805 22.1133 46.6367C21.7695 46.2643 21.5977 45.8346 21.5977 45.3477C21.5977 44.8607 21.7695 44.431 22.1133 44.0586Z" fill="white"/>
</svg>
