<svg width="56" height="76" viewBox="0 0 56 76" fill="none" xmlns="http://www.w3.org/2000/svg">
<path d="M26.7109 36.7109C27.0833 36.3385 27.513 36.1523 28 36.1523C28.487 36.1523 28.9167 36.3385 29.2891 36.7109C29.6615 37.0833 29.8477 37.513 29.8477 38C29.8477 38.487 29.6615 38.9167 29.2891 39.2891C28.9167 39.6615 28.487 39.8477 28 39.8477C27.513 39.8477 27.0833 39.6615 26.7109 39.2891C26.3385 38.9167 26.1523 38.487 26.1523 38C26.1523 37.513 26.3385 37.0833 26.7109 36.7109ZM32.2109 36.7109C32.5833 36.3385 33.013 36.1523 33.5 36.1523C33.987 36.1523 34.4167 36.3385 34.7891 36.7109C35.1615 37.0833 35.3477 37.513 35.3477 38C35.3477 38.487 35.1615 38.9167 34.7891 39.2891C34.4167 39.6615 33.987 39.8477 33.5 39.8477C33.013 39.8477 32.5833 39.6615 32.2109 39.2891C31.8385 38.9167 31.6523 38.487 31.6523 38C31.6523 37.513 31.8385 37.0833 32.2109 36.7109ZM21.2109 36.7109C21.5833 36.3385 22.013 36.1523 22.5 36.1523C22.987 36.1523 23.4167 36.3385 23.7891 36.7109C24.1615 37.0833 24.3477 37.513 24.3477 38C24.3477 38.487 24.1615 38.9167 23.7891 39.2891C23.4167 39.6615 22.987 39.8477 22.5 39.8477C22.013 39.8477 21.5833 39.6615 21.2109 39.2891C20.8385 38.9167 20.6523 38.487 20.6523 38C20.6523 37.513 20.8385 37.0833 21.2109 36.7109Z" fill="white"/>
</svg>
