<svg width="56" height="76" viewBox="0 0 56 76" fill="none" xmlns="http://www.w3.org/2000/svg">
<path d="M21.5977 44.4023H34.4453V38.9023H34.2305C33.3711 38.9023 32.6836 38.6159 32.168 38.043C31.5951 38.6159 30.9076 38.9023 30.1055 38.9023C29.332 38.9023 28.6302 38.6159 28 38.043C27.4271 38.6159 26.7539 38.9023 25.9805 38.9023C25.1211 38.9023 24.4049 38.6159 23.832 38.043C23.3164 38.6159 22.6432 38.9023 21.8125 38.9023H21.5977V44.4023ZM20.6953 35.5938C20.6094 35.9948 20.6953 36.3529 20.9531 36.668C21.1536 36.9544 21.4401 37.0977 21.8125 37.0977C22.4141 37.0977 22.7721 36.7396 22.8867 36.0234L23.4453 31.5977H21.6406L20.6953 35.5938ZM24.7773 35.8516C24.7773 36.1667 24.8776 36.4531 25.0781 36.7109C25.3073 36.9688 25.5794 37.0977 25.8945 37.0977C26.2383 37.0977 26.5247 36.9831 26.7539 36.7539C26.9831 36.4961 27.0977 36.2096 27.0977 35.8945V31.5977H25.293L24.7773 35.7227V35.8516ZM28.9023 31.5977V35.8945C28.9023 36.2096 29.0169 36.4961 29.2461 36.7539C29.4753 36.9831 29.7331 37.0977 30.0195 37.0977C30.3919 37.0977 30.6927 36.9688 30.9219 36.7109C31.1797 36.4245 31.2799 36.0951 31.2227 35.7227L30.707 31.5977H28.9023ZM34.3164 31.5547L32.5547 31.5977L33.1133 36.0234C33.1419 36.3099 33.2565 36.5677 33.457 36.7969C33.6576 36.9974 33.901 37.0977 34.1875 37.0977C34.5312 37.0977 34.8177 36.9544 35.0469 36.668C35.3047 36.3529 35.3906 35.9948 35.3047 35.5938L34.3164 31.5547ZM37.0664 35.1641C37.2956 36.1667 37.1094 37.0404 36.5078 37.7852L36.25 38.043V44.4023C36.25 44.8893 36.0638 45.319 35.6914 45.6914C35.319 46.0638 34.8893 46.25 34.4023 46.25H21.5977C21.1107 46.25 20.681 46.0638 20.3086 45.6914C19.9362 45.319 19.75 44.8893 19.75 44.4023V38.043L19.4922 37.7852C18.8906 37.0404 18.7044 36.1667 18.9336 35.1641L19.8789 31.125C19.9648 30.724 20.1797 30.3945 20.5234 30.1367C20.8672 29.8789 21.2396 29.75 21.6406 29.75H34.3594C34.7604 29.75 35.1185 29.8789 35.4336 30.1367C35.7773 30.3945 36.0065 30.724 36.1211 31.125L37.0664 35.1641Z" fill="white"/>
</svg>
