<svg width="56" height="76" viewBox="0 0 56 76" fill="none" xmlns="http://www.w3.org/2000/svg">
<path d="M31.6523 38.9023C32.4544 38.9023 33.3281 39.0169 34.2734 39.2461C35.2188 39.4753 36.0924 39.8477 36.8945 40.3633C37.6966 40.8789 38.0977 41.4661 38.0977 42.125V44.4023H32.5977V42.125C32.5977 40.8646 31.9961 39.8047 30.793 38.9453C30.9935 38.9167 31.2799 38.9023 31.6523 38.9023ZM21.7266 39.2461C22.6719 39.0169 23.5456 38.9023 24.3477 38.9023C25.1497 38.9023 26.0234 39.0169 26.9688 39.2461C27.9141 39.4753 28.7734 39.8477 29.5469 40.3633C30.349 40.8789 30.75 41.4661 30.75 42.125V44.4023H17.9023V42.125C17.9023 41.4661 18.3034 40.8789 19.1055 40.3633C19.9076 39.8477 20.7812 39.4753 21.7266 39.2461ZM26.2383 36.2812C25.7227 36.8255 25.0924 37.0977 24.3477 37.0977C23.6029 37.0977 22.9583 36.8255 22.4141 36.2812C21.8698 35.737 21.5977 35.0924 21.5977 34.3477C21.5977 33.6029 21.8698 32.9583 22.4141 32.4141C22.9583 31.8698 23.6029 31.5977 24.3477 31.5977C25.0924 31.5977 25.7227 31.8698 26.2383 32.4141C26.7826 32.9583 27.0547 33.6029 27.0547 34.3477C27.0547 35.0924 26.7826 35.737 26.2383 36.2812ZM33.5859 36.2812C33.0417 36.8255 32.3971 37.0977 31.6523 37.0977C30.9076 37.0977 30.263 36.8255 29.7188 36.2812C29.1745 35.737 28.9023 35.0924 28.9023 34.3477C28.9023 33.6029 29.1745 32.9583 29.7188 32.4141C30.263 31.8698 30.9076 31.5977 31.6523 31.5977C32.3971 31.5977 33.0417 31.8698 33.5859 32.4141C34.1302 32.9583 34.4023 33.6029 34.4023 34.3477C34.4023 35.0924 34.1302 35.737 33.5859 36.2812Z" fill="#AE7AFF"/>
</svg>
