<svg width="16" height="12" viewBox="0 0 16 12" fill="none" xmlns="http://www.w3.org/2000/svg">
<path fill-rule="evenodd" clip-rule="evenodd" d="M8.16707 2.61517C10.3918 2.61526 12.5315 3.46937 14.1438 5.00097C14.2652 5.11921 14.4593 5.11772 14.5789 4.99762L15.7395 3.82729C15.8 3.76638 15.8338 3.68387 15.8333 3.59802C15.8328 3.51217 15.7981 3.43006 15.7368 3.36986C11.5049 -0.682369 4.82857 -0.682369 0.596657 3.36986C0.535354 3.43002 0.500572 3.5121 0.500007 3.59795C0.499442 3.6838 0.53314 3.76634 0.593645 3.82729L1.75459 4.99762C1.87409 5.1179 2.06831 5.11939 2.18965 5.00097C3.80221 3.46927 5.94212 2.61516 8.16707 2.61517ZM8.16707 6.42275C9.38942 6.42267 10.5681 6.87663 11.4742 7.6964C11.5968 7.81275 11.7898 7.81023 11.9093 7.69072L13.0685 6.52039C13.1296 6.459 13.1635 6.37572 13.1626 6.28919C13.1617 6.20265 13.1261 6.12008 13.0639 6.05995C10.3047 3.49554 6.03178 3.49554 3.27262 6.05995C3.2103 6.12008 3.17474 6.20269 3.17392 6.28926C3.1731 6.37582 3.20709 6.45909 3.26827 6.52039L4.42721 7.69072C4.54667 7.81023 4.73972 7.81275 4.86227 7.6964C5.76774 6.87717 6.94553 6.42326 8.16707 6.42275ZM10.4893 8.98459C10.4911 9.07136 10.4569 9.15503 10.3949 9.21583L8.38962 11.2378C8.33084 11.2972 8.25069 11.3307 8.16707 11.3307C8.08345 11.3307 8.0033 11.2972 7.94452 11.2378L5.93888 9.21583C5.87693 9.15498 5.84284 9.07129 5.84468 8.98451C5.84652 8.89774 5.88411 8.81556 5.94859 8.75739C7.22925 7.67512 9.10489 7.67512 10.3856 8.75739C10.45 8.81561 10.4875 8.89781 10.4893 8.98459Z" fill="white"/>
</svg>
