<svg width="26" height="12" viewBox="0 0 26 12" fill="none" xmlns="http://www.w3.org/2000/svg">
<path d="M0.280273 4.27344C0.280273 3.25716 0.590169 2.43229 1.20996 1.79883C1.82975 1.16081 2.69792 0.841797 3.81445 0.841797C4.86719 0.841797 5.74674 1.18132 6.45312 1.86035C7.16406 2.53939 7.51953 3.65137 7.51953 5.19629V5.44238C7.51953 7.10579 7.01823 8.44108 6.01562 9.44824C5.01758 10.4508 3.54102 10.9681 1.58594 11H1.39453V9.36621H1.57227C2.81641 9.36621 3.78711 9.06087 4.48438 8.4502C5.18164 7.83952 5.53027 6.84603 5.53027 5.46973L5.42773 5.1416C5.42773 4.14355 5.28874 3.43717 5.01074 3.02246C4.7373 2.60775 4.33626 2.40039 3.80762 2.40039C3.31999 2.40039 2.96452 2.55762 2.74121 2.87207C2.5179 3.18652 2.40625 3.64453 2.40625 4.24609C2.40625 4.82487 2.52018 5.27604 2.74805 5.59961C2.98047 5.92318 3.34505 6.08496 3.8418 6.08496C4.3112 6.08496 4.69629 5.9209 4.99707 5.59277C5.30241 5.26465 5.45508 4.83398 5.45508 4.30078H6.05664C6.05664 5.17122 5.83561 5.93913 5.39355 6.60449C4.95605 7.26986 4.27474 7.60254 3.34961 7.60254C2.39258 7.60254 1.64062 7.29948 1.09375 6.69336C0.551432 6.08268 0.280273 5.27604 0.280273 4.27344ZM8.93457 10.002C8.93457 9.6875 9.03939 9.41862 9.24902 9.19531C9.46322 8.96745 9.77083 8.85352 10.1719 8.85352C10.5775 8.85352 10.8874 8.96745 11.1016 9.19531C11.3203 9.41862 11.4297 9.6875 11.4297 10.002C11.4297 10.3164 11.3203 10.5876 11.1016 10.8154C10.8874 11.0387 10.5798 11.1504 10.1787 11.1504C9.77767 11.1504 9.47005 11.0387 9.25586 10.8154C9.04167 10.5876 8.93457 10.3164 8.93457 10.002ZM8.93457 4.71777C8.93457 4.40332 9.04167 4.13444 9.25586 3.91113C9.47005 3.68327 9.77767 3.56934 10.1787 3.56934C10.5798 3.56934 10.8874 3.68327 11.1016 3.91113C11.3203 4.13444 11.4297 4.40332 11.4297 4.71777C11.4297 5.03223 11.3203 5.30111 11.1016 5.52441C10.8874 5.74772 10.5775 5.85938 10.1719 5.85938C9.77083 5.85938 9.46322 5.74772 9.24902 5.52441C9.03939 5.30111 8.93457 5.03223 8.93457 4.71777ZM17.0762 11V8.2998L17.0898 7.96484V3.85645H17.0078L14.7178 7.24707H17.5889L18.0742 7.24023H20.1934V8.82617H12.6396V7.47266L17.124 1.04688H19.1338V11H17.0762ZM23.7686 11V3.05664L21.417 3.96582V2.23633L24.8281 0.930664H25.874V11H23.7686Z" fill="black"/>
</svg>
