<svg width="18" height="12" viewBox="0 0 18 12" fill="none" xmlns="http://www.w3.org/2000/svg">
<path fill-rule="evenodd" clip-rule="evenodd" d="M16.5 0.666687H15.5C14.9477 0.666687 14.5 1.1144 14.5 1.66669V10.3334C14.5 10.8856 14.9477 11.3334 15.5 11.3334H16.5C17.0523 11.3334 17.5 10.8856 17.5 10.3334V1.66669C17.5 1.1144 17.0523 0.666687 16.5 0.666687ZM10.8333 3.00002H11.8333C12.3856 3.00002 12.8333 3.44774 12.8333 4.00002V10.3334C12.8333 10.8856 12.3856 11.3334 11.8333 11.3334H10.8333C10.281 11.3334 9.83333 10.8856 9.83333 10.3334V4.00002C9.83333 3.44774 10.281 3.00002 10.8333 3.00002ZM7.16667 5.33335H6.16667C5.61438 5.33335 5.16667 5.78107 5.16667 6.33335V10.3334C5.16667 10.8856 5.61438 11.3334 6.16667 11.3334H7.16667C7.71895 11.3334 8.16667 10.8856 8.16667 10.3334V6.33335C8.16667 5.78107 7.71895 5.33335 7.16667 5.33335ZM2.5 7.33335H1.5C0.947715 7.33335 0.5 7.78107 0.5 8.33335V10.3334C0.5 10.8856 0.947715 11.3334 1.5 11.3334H2.5C3.05228 11.3334 3.5 10.8856 3.5 10.3334V8.33335C3.5 7.78107 3.05228 7.33335 2.5 7.33335Z" fill="white"/>
</svg>
